<svg xmlns="http://www.w3.org/2000/svg" xml:space="preserve" width="466" height="423.9"><path d="M185.6 74.2v47.1H91.3v47.2H44v48.2H3.8l-.7 7.1c-2.2 23.8 1.1 47.6 11 69.4l4.2 8.6.4.8C47.8 352 99 372.8 154.6 372.8c107.7 0 196.6-48.2 237.4-149.8 27.3 1.4 55.2-6.7 68.5-32.7l3.4-6.7-6.5-3.7a72 72 0 0 0-54.7-5c-2.2-19.1-14.7-35.8-29.5-47.7l-6-4.8-4.9 5.7c-10 11.6-13 30.7-11.6 45.4 1 10.8 4.4 21.8 11.1 30.5a103.4 103.4 0 0 1-48.7 12.7h-23.8v-48.2H242V74.2Zm7.8 7.8h40.9v41h-40.9zm3.4 3.5v34h3.2v-34Zm6 0v34h3.4v-34Zm6.3 0v34h3.3v-34Zm6.2 0v34h3.3v-34Zm6.2 0v34h3.3v-34Zm6.1 0v34h3.3v-34ZM99.1 129.2H140V170H99Zm47.2 0H187V170h-40.8zm47.1 0h40.9V170h-40.9zm-90.9 3.4v34h3.3v-34zm6 0v34h3.4v-34zm6.3 0v34h3.3v-34zm6.2 0v34h3.3v-34zm6.2 0v34h3.3v-34zm6.2 0v34h3.2v-34zm16.3 0v34h3.2v-34zm6 0v34h3.4v-34zm6.2 0v34h3.4v-34zm6.2 0v34h3.4v-34zm6.2 0v34h3.4v-34zm6.2 0v34h3.2v-34zm16.3 0v34h3.2v-34zm6 0v34h3.4v-34zm6.3 0v34h3.3v-34zm6.2 0v34h3.3v-34zm6.2 0v34h3.3v-34zm6.1 0v34h3.3v-34ZM52 176.3h40.8v40.9H52Zm47.1 0H140v40.9H99Zm47.2 0H187v40.9h-40.8zm47.1 0h40.9v40.9h-40.9zm47.2 0h40.8v40.9h-40.8zm-185.2 3.4v34.1h3.2v-34zm6 0v34.1h3.4v-34zm6.2 0v34.1H71v-34zm6.2 0v34.1h3.4v-34zm6.2 0v34.1h3.4v-34zm6.2 0v34.1h3.2v-34zm16.3 0v34.1h3.3v-34zm6 0v34.1h3.4v-34zm6.3 0v34.1h3.3v-34zm6.2 0v34.1h3.3v-34zm6.2 0v34.1h3.3v-34zm6.2 0v34.1h3.2v-34zm16.3 0v34.1h3.2v-34zm6 0v34.1h3.4v-34zm6.2 0v34.1h3.4v-34zm6.2 0v34.1h3.4v-34zm6.2 0v34.1h3.4v-34zm6.2 0v34.1h3.2v-34zm16.3 0v34.1h3.2v-34zm6 0v34.1h3.4v-34zm6.3 0v34.1h3.3v-34zm6.2 0v34.1h3.3v-34zm6.2 0v34.1h3.3v-34zm6.1 0v34.1h3.3v-34zm16.4 0v34.1h3.2v-34zm6 0v34.1h3.4v-34zm6.2 0v34.1h3.4v-34zm6.2 0v34.1h3.4v-34zm6.2 0v34.1h3.4v-34zm6.2 0v34.1h3.2v-34ZM137.4 283.4a11.3 11.3 0 1 1 0 22.6 11.3 11.3 0 0 1 0-22.6zm0 3.2a8 8 0 1 0 7.5 5 3.3 3.3 0 1 1-4.5-4.4 8 8 0 0 0-3-.6zm-21.8 27.2c8.6 19.6 23.9 37.6 51.8 50.9l-12.8.2c-58.4-.3-89.8-20-115.4-45.6a414.6 414.6 0 0 0 39.1.1c14.5-.8 27-2.7 37.3-5.6z" style="clip-rule:evenodd;display:inline;fill-rule:evenodd"/></svg>