<svg width="512" xmlns="http://www.w3.org/2000/svg" height="512" fill="none"><defs><clipPath id="a" class="frame-clip frame-clip-def"><rect rx="0" ry="0" width="512" height="512"/></clipPath></defs><g clip-path="url(#a)"><g class="fills"><rect rx="0" ry="0" width="512" height="512" class="frame-background"/></g><g class="frame-children"><rect rx="100" ry="100" width="512" height="512" style="fill: rgb(0, 0, 0); fill-opacity: 1;" class="fills"/><g class="w-10" style="fill: rgb(0, 0, 0);"><path d="m209.81 96.891-45.463 22.829v34.326h22.875v34.332h-22.875v45.775h6.863c3.774 0 6.891.387 6.926.859.034.471-6.266 36.52-14.004 80.107l-14.067 79.25h-31.466V439H232.97v-24.641c0-34.212 4.602-42.828 22.874-42.828s22.874 8.616 22.874 42.828V439h114.371v-44.631h-31.466l-14.067-79.25c-7.737-43.587-14.038-79.636-14.004-80.107.036-.472 3.152-.859 6.927-.859h6.862v-45.775h-22.874v-34.332h22.874V119.72l-45.743-22.892C276.44 84.239 255.724 73.967 255.564 74c-.16.034-20.749 10.336-45.754 22.891ZM44.785 90.784c-3.72 8.704-6.12 15.75-5.544 16.283 1.361 1.264 92.724 40.407 93.886 40.223.871-.136 12.624-26.421 13.211-29.548.184-.977-16.368-8.632-47.357-21.901L51.342 75.442l-6.557 15.342Zm367.238 5.39c-25.126 10.849-45.816 20.197-45.977 20.775-.605 2.165 11.851 30.798 13.259 30.48 1.741-.395 94.004-40.081 94.624-40.703 1.182-1.183-12.714-30.492-14.408-30.388-.997.061-22.371 8.987-47.498 19.836Zm-167.902 35.054-11.151 5.674v51.476h45.748V136.9l-11.416-5.732c-6.279-3.153-11.554-5.706-11.723-5.674-.168.032-5.324 2.613-11.458 5.734ZM86.372 203.099c-25.588 11.101-46.884 20.548-47.323 20.995-.44.446 2.151 7.715 5.757 16.15l6.556 15.338 45.342-19.366c24.937-10.652 46.477-19.829 47.864-20.395 2.754-1.121 3.489 1.172-9.416-29.446-.862-2.045-1.722-3.661-1.912-3.589-.19.071-21.28 9.213-46.868 20.313Zm291.433-18.406c-1.056 1.708-12.165 29.167-12.165 30.066 0 .499 1.931 1.538 4.289 2.312 2.359.773 23.321 9.567 46.584 19.543 23.263 9.977 42.889 18.139 43.615 18.139 1.023 0 9.222-17.374 13.663-28.955.561-1.46-63.563-30.096-88.708-39.615-7.305-2.766-6.582-2.618-7.278-1.49Z" fill="currentcolor" style="fill: rgb(255, 255, 255); fill-opacity: 1;" class="fills"/></g></g></g></svg>